/* XPM */
static char *_001[] = {
/* columns rows colors chars-per-pixel */
"50 50 240 2 ",
"   c None",
".  c #070307",
"X  c #190B0C",
"o  c #150D1D",
"O  c #180C14",
"+  c #131018",
"@  c #35110F",
"#  c #240C15",
"$  c #2C141D",
"%  c #29151A",
"&  c #3B1A1C",
"*  c #371618",
"=  c #2D0F0E",
"-  c #36211B",
";  c #1C1428",
":  c #191838",
">  c #1A0F25",
",  c #2A1327",
"<  c #3B1B22",
"1  c #361A28",
"2  c #251A38",
"3  c #391A36",
"4  c #1C2938",
"5  c #0E2A3B",
"6  c #382826",
"7  c #2A2337",
"8  c #39223B",
"9  c #3B3539",
"0  c #2A2F35",
"q  c #550718",
"w  c #451715",
"e  c #561D19",
"r  c #490617",
"t  c #44261B",
"y  c #59261C",
"u  c #69271D",
"i  c #752819",
"p  c #703A18",
"a  c #441E25",
"s  c #4E0B27",
"d  c #740F21",
"f  c #492427",
"g  c #592828",
"h  c #4A332B",
"j  c #5B362A",
"k  c #492837",
"l  c #5B2A33",
"z  c #552734",
"x  c #4C3A3C",
"c  c #553736",
"v  c #662928",
"b  c #762A21",
"n  c #69352A",
"m  c #773728",
"M  c #622D34",
"N  c #683735",
"B  c #723634",
"V  c #7C3A34",
"C  c #743A37",
"Z  c #631A1D",
"A  c #54433A",
"S  c #784636",
"D  c #714D35",
"F  c #1B2448",
"G  c #0C2F4C",
"H  c #2B2546",
"J  c #342743",
"K  c #2F3050",
"L  c #193963",
"P  c #0C3A72",
"I  c #2D3665",
"U  c #231E47",
"Y  c #452B49",
"T  c #4A3B48",
"R  c #5A3A47",
"E  c #5C3F50",
"W  c #543753",
"Q  c #2E4557",
"!  c #0E4F6D",
"~  c #335467",
"^  c #385368",
"/  c #0D6B7B",
"(  c #0E4C57",
")  c #4B4A4A",
"_  c #4D4345",
"`  c #4B4653",
"'  c #5A535A",
"]  c #5E5656",
"[  c #564E52",
"{  c #6A4747",
"}  c #784643",
"|  c #74555A",
" . c #6B5053",
".. c #666658",
"X. c #757158",
"o. c #48586B",
"O. c #495A78",
"+. c #595E6F",
"@. c #70596D",
"#. c #4F6A7D",
"$. c #6C6A6A",
"%. c #716D6B",
"&. c #766669",
"*. c #686A73",
"=. c #7B7B76",
"-. c #7D7C79",
";. c #797574",
":. c #717177",
">. c #87181D",
",. c #92321E",
"<. c #901428",
"1. c #86382C",
"2. c #953B2C",
"3. c #883935",
"4. c #973B36",
"5. c #AA3427",
"6. c #AD2A1F",
"7. c #D1302B",
"8. c #9F4119",
"9. c #AA4D1C",
"0. c #884438",
"q. c #92483D",
"w. c #974635",
"e. c #975439",
"r. c #90472A",
"t. c #AA573A",
"y. c #B0512E",
"u. c #BC672B",
"i. c #C85129",
"p. c #F74C2D",
"a. c #D97329",
"s. c #D06F2E",
"d. c #EA7C28",
"f. c #895A44",
"g. c #955744",
"h. c #89514C",
"j. c #AB5A48",
"k. c #B05543",
"l. c #926953",
"z. c #A5654D",
"x. c #B7674C",
"c. c #AC7654",
"v. c #B17855",
"b. c #856C67",
"n. c #817F7C",
"m. c #90706C",
"M. c #AB7866",
"N. c #CD5643",
"B. c #C26845",
"V. c #DF774F",
"C. c #D07153",
"Z. c #EC7A4F",
"A. c #749566",
"S. c #738C5F",
"D. c #DB8934",
"F. c #E48634",
"G. c #F59A37",
"H. c #EE882B",
"J. c #BA8356",
"K. c #85817A",
"L. c #9E8172",
"P. c #B38970",
"I. c #D48B5D",
"U. c #F29C50",
"Y. c #CD926C",
"T. c #EA9966",
"R. c #F49764",
"E. c #F7A76C",
"W. c #F5AE71",
"Q. c #FBAE73",
"!. c #FEBD7A",
"~. c #FCB574",
"^. c #FAB26A",
"/. c #D6A678",
"(. c #114C87",
"). c #3D5C83",
"_. c #45768F",
"`. c #66778B",
"'. c #7B6C80",
"]. c #8B7780",
"[. c #148E8E",
"{. c #4E819D",
"}. c #51839F",
"|. c #778593",
" X c #4C84A1",
".X c #578AA4",
"XX c #5F90A9",
"oX c #7D8AA5",
"OX c #8A8786",
"+X c #958988",
"@X c #93928C",
"#X c #9A958F",
"$X c #999797",
"%X c #918D92",
"&X c #A59A99",
"*X c #B08F87",
"=X c #A1A29C",
"-X c #838EA7",
";X c #9598A5",
":X c #98A2A8",
">X c #ADACA6",
",X c #A9A3A5",
"<X c #B0ABA7",
"1X c #B5B4AC",
"2X c #BAB9B3",
"3X c #D0AC8D",
"4X c #E3B493",
"5X c #C8B8AD",
"6X c #FCC589",
"7X c #F2C597",
"8X c #C6C4BD",
"9X c #C8C8BF",
"0X c #DBC5B2",
"qX c #E6D4BD",
"wX c #FBD6AC",
"eX c #9BB9C3",
"rX c #B6BECB",
"tX c #B3C9CD",
"yX c #B8C9CB",
"uX c #B6CDD2",
"iX c #AAC4CB",
"pX c #CCCCC3",
"aX c #C4C7C7",
"sX c #D5D5CC",
"dX c #C4D6D7",
"fX c #DCDBD2",
"gX c #CED0C6",
"hX c #E1DED7",
"jX c #DFE0D5",
"kX c #E9E9DE",
"lX c #E6E5DA",
"zX c #F8EEDD",
"xX c #DAE4E2",
"cX c #EBEDE2",
"vX c #EDF2E8",
"bX c #F3F2E6",
"nX c #FAFBED",
"mX c #F7F7EB",
"MX c #FFFFF1",
"NX c #FFFFF9",
/* pixels */
"MXMXMXMXMXMXMXMXMXMXMXMXMXMXMXMXMXMXNXNXzX4Xg.l k @.5XNXMXMXMXMXMXMXMXMXMXMXMXMXMXMXMXMXMXMXMXMXnX  ",
"MXMXMXMXMXMXMXMXMXMXMXMXMXMXMXMXMXnX<X#X*X/.f.h %.OX@X$XkXNXMXMXMXMXMXMXMXMXMXMXMXMXMXMXMXMXMXMXMXnX",
"MXMXMXMXMXMXMXMXMXMXMXMXMXMXMXMXMX<XK.l.z.f.& h M.m n n &.$XnXMXMXMXMXMXMXMXMXMXMXMXMXMXMXMXMXMXMXMX",
"MXMXMXMXMXMXMXMXMXMXMXMXMXMXMXMXMX&.c.C.C 6 1 a B t.t.B.r.N $.%.8XNXMXMXMXMXMXMXMXMXMXMXMXMXMXMXMXMX",
"MXMXMXMXMXMXMXMXMXMXMXMXMXMXMXNXNX&.V V c.3Xv.t.C V 0.B 0.0.g 1 @.OXlXMXMXMXMXMXMXMXMXMXMXMXMXMXMXMX",
"MXMXMXMXMXMXMXMXMXMXMXMXMXNXkX$X%XT 1 M j f.0.t.B.q.z z l $ $ , , $.lXMXMXMXMXMXMXMXMXMXMXMXMXMXMXMX",
"MXMXMXMXMXMXMXMXMXMXMXMXmXfXb.e.V < % } l.0.q.N q.B.g.l z f O < 1 ' fXMXMXMXMXMXMXMXMXMXMXMXMXMXMXMX",
"MXMXMXMXMXMXMXMXMXMXMXMX&X{ l.Y.t.0.% 6 P.Y.Y.3Xg.B e.B $ n f $ 3 8 ' fXNXMXMXMXMXMXMXMXMXMXMXMXMXMX",
"MXMXMXMXMXMXMXMXMXMXMXMXhX| P.x.0.% . . N j.h.x.q.V g N 1 $ N f < M k ' 8XhXMXMXMXMXMXMXMXMXMXMXMXMX",
"MXMXMXMXMXMXMXMXMXMXMXMXmX| 0.t.& * j h M k.& m 3.q.m $ z , k l 1 < 3 J 9 <XMXMXMXMXMXMXMXMXMXMXMXMX",
"MXMXMXMXMXMXMXMXMXMXMXMX,Xk 3.0.O w.E.T.q.0.% # B C n # $ 1 o > K 2 o ` ,XMXMXMXMXMXMXMXMXMXMXMXMXMX",
"MXMXMXMXMXMXMXMXMXMXMXMX8X9 B M g I.!.!.x.g & S f z l g f $ o o o H U 7 @XMXMXMXMXMXMXMXMXMXMXMXMXMX",
"MXMXMXMXMXMXMXMXMXMXMXMXmX_ M f S I.J.Y.T.q.l c.J.N f M C l 1 3 % ; 2 9 gXMXMXMXMXMXMXMXMXMXMXMXMXMX",
"MXMXMXMXMXMXMXMXMXMXMXMXbX_ z 1 S D O 1 J.T.j.V D O O f 3.l z f f Y ; ) nXMXMXMXMXMXMXMXMXMXMXMXMXMX",
"MXMXMXMXMXMXMXMXMXMXMXMXnX#Xk , g  .+ + &.!.Q.C.K . 0 { x.< , = e 1 : 7 >XMXMXMXMXMXMXMXMXMXMXMXMXMX",
"MXMXMXMXMXMXMXMXMXMXMXMXbX+Xk X n 5X{ N 0X!.!.6X&Xw +X3XI.C a m N.& ;.@X2XMXMXMXMXMXMXMXMXMXMXMXMXMX",
"MXMXMXMXMXMXMXMXMXMXMXMX&X .%X> D wXx.x.wX~.Q.6X4X5.3X7Xg.V g 4.N.h gXNXNXMXMXMXMXMXMXMXMXMXMXMXMXMX",
"MXMXMXMXMXMXMXMXMXMXMXMXcXkXsX2 D ~.U.U.!.R.R.!.^.G.^.~.x.3.5.N.B.6 pXNXMXMXMXMXMXMXMXMXMXMXMXMXMXMX",
"MXMXMXMXMXMXMXMXMXMXMXMXMXNXfX7 m Q.!.!.W.T.T.~.!.!.6XR.N.2.m t.t ) lXMXMXMXMXMXMXMXMXMXMXMXMXMXMXMX",
"MXMXMXMXMXMXMXMXMXMXMXMXMXkXn.-.| B.~.!.E.V.V.W.!.!.E.Z.1.X . 9 K.sXMXMXMXMXMXMXMXMXMXMXMXMXMXMXMXMX",
"MXMXMXMXMXMXMXMXMXMXMXMXMXcX>XnX-.& C.W.W.W.W.W.Q.E.V.m X o ; =.NXMXMXMXMXMXMXMXMXMXMXMXMXMXMXMXMXMX",
"MXMXMXMXMXMXMXMXMXMXMXMXMXMXNXmX=.;.0X0XP.n 1.3.3.v Y 7 K.&XK %.bXMXMXMXMXMXMXMXMXMXMXMXMXMXMXMXMXMX",
"MXMXMXMXMXMXMXMXMXMXMXMXMXMXNX1X@XbXgX .v X 1.4.F 2 s s _ 8XrX#.<XMXMXMXMXMXMXMXMXMXMXMXMXMXMXMXMXMX",
"MXMXMXMXMXMXMXMXMXMXMXMXMXMXMXbXmXpX} 6.,.@ S A 6 Z d q 3 T 9XvXbXMXMXMXMXMXMXMXMXMXMXMXMXMXMXMXMXMX",
"MXMXMXMXMXMXMXMXMXMXMXMXMXMXMXMXpX;.2.6.7.5.S X.i.7.<.q R E +.pXMXMXMXMXMXMXMXMXMXMXMXMXMXMXMXMXMXMX",
"MXMXMXMXMXMXMXMXMXMXMXMXMXMXMXNXn.#Xm.u >.7.p.p.7.d r T <XaX+.=.NXMXMXMXMXMXMXMXMXMXMXMXMXMXMXMXMXMX",
"MXMXMXMXMXMXMXMXMXMXMXMXMXMXMXdX%X5X,Xw.w >.6.<.Z q S $XfXqX:X*.pXMXMXMXMXMXMXMXMXMXMXMXMXMXMXMXMXMX",
"MXMXMXMXMXMXMXMXMXMXMXMXMXMXMXeX|.qX=Xk.0.c # I &.w.v.,X5XqX2Xo.#XMXMXMXMXMXMXMXMXMXMXMXMXMXMXMXMXMX",
"MXMXMXMXMXMXMXMXMXMXMXMXMXMXsX-./.7X:Xh.b.z.c { L.&.m.,XoX5X4Xu.D 8XNXMXMXMXMXMXMXMXMXMXMXMXMXMXMXMX",
"MXMXMXMXMXMXMXMXMXMXMXMXMXnX1XX.W./.;X} S z.{ g.;.k l.;XQ @XU.d.p &XMXMXMXMXMXMXMXMXMXMXMXMXMXMXMXMX",
"MXMXMXMXMXMXMXMXMXMXMXMXMXfXD D.F.M.`.' A f.4 - h.` T O.4 | s.G.a.N sXNXMXMXMXMXMXMXMXMXMXMXMXMXMXMX",
"MXMXMXMXMXMXMXMXMXMXMXMXnX,Xt u.8.R Q j e.L.*.' y S c ; f 8 ,.i.i.t $XnXMXMXMXMXMXMXMXMXMXMXMXMXMXMX",
"MXMXMXMXMXMXMXMXMXMXMXMXbX' *.+X@.8 { t.y.*X`.|.$ C R T C Y *.*X].Q T kXMXMXMXMXMXMXMXMXMXMXMXMXMXMX",
"MXMXMXMXMXMXMXMXMXMXMXMXbX)  .| K k m.g @ K `.O.O y t.} a L ` l.[ 4 9 lXMXMXMXMXMXMXMXMXMXMXMXMXMXMX",
"MXMXMXMXMXMXMXMXMXMXMXMX@Xg ,.y.w @ x m u t 6 6 u v c g 1.8 * y.2.e J OXnXMXMXMXMXMXMXMXMXMXMXMXMXMX",
"MXMXMXMXMXMXMXMXMXMXMXMX] e i b * + 4 y 9.F.9.s.9.h ( 0 f F 1 v 1.v H ` nXMXMXMXMXMXMXMXMXMXMXMXMXMX",
"MXMXMXMXMXMXMXMXMXMXMXMX-.f w n B X p a.G.d.8.u.F.u.y e F G c 0.w & H $.nXMXMXMXMXMXMXMXMXMXMXMXMXMX",
"MXMXMXMXMXMXMXMXMXMXMXMXkXx u w.0.e s.d.a.i X h m D.a.i a I h w.b b 9 fXMXMXMXMXMXMXMXMXMXMXMXMXMXMX",
"MXMXMXMXMXMXMXMXMXMXMXMXnX@X%.%.%.0.F.G.a.i % =Xf y.G.H.y.v 6 %.%.%.K.bXMXMXMXMXMXMXMXMXMXMXMXMXMXMX",
"MXMXMXMXMXMXMXMXMXMXMXMXMXMXNXNX2X] X.A.S.[ 7 8XOX..A.S...J K 1XNXMXMXMXMXMXMXMXMXMXMXMXMXMXMXMXMXMX",
"MXMXMXMXMXMXMXMXMXMXMXMXMXMXMXNX=.G [.[./ ! (.xXyX! [.[./ ! G =.NXMXMXMXMXMXMXMXMXMXMXMXMXMXMXMXMXMX",
"MXMXMXMXMXMXMXMXMXMXMXMXMXMXMXNX-.5 ~ ! ! ! L sX2XG / ! Q L G =.NXMXMXMXMXMXMXMXMXMXMXMXMXMXMXMXMXMX",
"MXMXMXMXMXMXMXMXMXMXMXMXMXMXMXNX=.# c.x G P ^ fXpXQ L K c.R : |.NXMXMXMXMXMXMXMXMXMXMXMXMXMXMXMXMXMX",
"MXMXMXMXMXMXMXMXMXMXMXMXMXMXMXMX>XR -X^ Y : >XMXMX$X* 3.$X).U -XMXMXMXMXMXMXMXMXMXMXMXMXMXMXMXMXMXMX",
"MXMXMXMXMXMXMXMXMXMXMXMXMXMXMXMXMX:.F ; 1 ` gXNXNXpXx u 0 F U -.NXMXMXMXMXMXMXMXMXMXMXMXMXMXMXMXMXMX",
"MXMXMXMXMXMXMXMXMXMXMXMXMXMXMXNXNXm.e @ . @XNXMXMXMX2X0 @ f : -.NXMXMXMXMXMXMXMXMXMXMXMXMXMXMXMXMXMX",
"MXMXMXMXMXMXMXMXMXMXMXMXMXNXcX=X&Xh.2.y . @XNXMXMXMXMX..i 2.$ ) fXNXMXMXMXMXMXMXMXMXMXMXMXMXMXMXMXMX",
"MXMXMXMXMXMXMXMXMXMXMXnXdXuX:X- r.s.w.& . *.tXtXtXtXtX) r.s.m . :.uXtXdXMXMXMXMXMXMXMXMXMXMXMXMXMXMX",
"MXMXMXMXMXMXMXMXMXxXuXeX.X X).- r.e.w O O Q  X{.{.{.{.0 y e.n o ~  X{.XXeXuXcXMXMXMXMXMXMXMXMXMXMXMX",
"MXMXMXMXMXMXMXMXMXnXvXdXiXXX_.^ o.o.~ ~ ~ _. X X}.}.}.#.o.o.o.^ _. XXXiXdXvXnXMXMXMXMXMXMXMXMXMXMXMX"
};
